HIERARCHY
ROOT Hips
{
 OFFSET 0.000000 0.000000 0.000000
 CHANNELS 6 Xposition Yposition Zposition Yrotation Xrotation Zrotation
 JOINT Chest
 {
  OFFSET 0.000000 9.585900 0.002600
  CHANNELS 3 Yrotation Xrotation Zrotation
  JOINT Chest2
  {
   OFFSET 0.000000 9.601200 -0.005300
   CHANNELS 3 Yrotation Xrotation Zrotation
   JOINT Chest3
   {
    OFFSET 0.000000 9.561800 0.000000
    CHANNELS 3 Yrotation Xrotation Zrotation
    JOINT Chest4
    {
     OFFSET 0.000000 9.552100 0.000000
     CHANNELS 3 Yrotation Xrotation Zrotation
     JOINT Neck
     {
      OFFSET 0.000000 14.453000 0.000000
      CHANNELS 3 Yrotation Xrotation Zrotation
      JOINT Head
      {
       OFFSET 0.000000 8.936500 -0.011300
       CHANNELS 3 Yrotation Xrotation Zrotation
       End Site
       {
        OFFSET 0.000000 17.073600 -0.006000
       }
      }
     }
     JOINT RightCollar
     {
      OFFSET -2.921100 9.558500 0.000000
      CHANNELS 3 Yrotation Xrotation Zrotation
      JOINT RightShoulder
      {
       OFFSET -13.519700 0.000000 0.000000
       CHANNELS 3 Yrotation Xrotation Zrotation
       JOINT RightElbow
       {
        OFFSET 0.000000 -29.696600 0.000000
        CHANNELS 3 Yrotation Xrotation Zrotation
        JOINT RightWrist
        {
         OFFSET 0.000000 -24.004700 0.000000
         CHANNELS 3 Yrotation Xrotation Zrotation
         End Site
         {
          OFFSET 0.000000 -17.728500 0.000000
         }
        }
       }
      }
     }
     JOINT LeftCollar
     {
      OFFSET 2.921100 9.558500 0.000000
      CHANNELS 3 Yrotation Xrotation Zrotation
      JOINT LeftShoulder
      {
       OFFSET 13.519700 0.000000 0.000000
       CHANNELS 3 Yrotation Xrotation Zrotation
       JOINT LeftElbow
       {
        OFFSET 0.000000 -29.696600 0.000000
        CHANNELS 3 Yrotation Xrotation Zrotation
        JOINT LeftWrist
        {
         OFFSET 0.000000 -24.004700 0.000000
         CHANNELS 3 Yrotation Xrotation Zrotation
         End Site
         {
          OFFSET 0.000000 -17.728500 0.000000
         }
        }
       }
      }
     }
    }
   }
  }
 }
 JOINT RightHip
 {
  OFFSET -7.771700 -0.012900 -0.001300
  CHANNELS 3 Yrotation Xrotation Zrotation
  JOINT RightKnee
  {
   OFFSET 0.000000 -40.869800 0.001200
   CHANNELS 3 Yrotation Xrotation Zrotation
   JOINT RightAnkle
   {
    OFFSET 0.000000 -39.717900 0.002100
    CHANNELS 3 Yrotation Xrotation Zrotation
    JOINT RightToe
    {
     OFFSET 0.000000 -4.965400 11.033500
     CHANNELS 3 Yrotation Xrotation Zrotation
     End Site
     {
      OFFSET 0.000000 -1.423100 5.872300
     }
    }
   }
  }
 }
 JOINT LeftHip
 {
  OFFSET 7.771700 -0.012900 -0.001300
  CHANNELS 3 Yrotation Xrotation Zrotation
  JOINT LeftKnee
  {
   OFFSET 0.000000 -40.869800 0.001200
   CHANNELS 3 Yrotation Xrotation Zrotation
   JOINT LeftAnkle
   {
    OFFSET 0.000000 -39.717900 0.002100
    CHANNELS 3 Yrotation Xrotation Zrotation
    JOINT LeftToe
    {
     OFFSET 0.000000 -4.965400 11.033500
     CHANNELS 3 Yrotation Xrotation Zrotation
     End Site
     {
      OFFSET 0.000000 -1.423100 5.872300
     }
    }
   }
  }
 }
}
MOTION
Frames: 5
Frame Time: 0.008333
-65.528816 63.119524 12.315409 164.413157 -50.362550 -2.349088 7.732106 26.600222 4.634518 1.166700 4.742668 0.316179 1.896604 7.466592 0.580135 5.879650 21.710748 2.426468 1.485130 14.366763 -2.286897 3.742480 -9.040155 -4.837802 5.873391 5.418316 5.243128 -3.237807 -12.992043 -12.644548 -80.558833 -58.212423 119.247874 2.895764 2.404152 -16.938713 -11.042609 3.035352 -0.525606 4.400263 -9.190718 12.766230 74.778978 -65.781694 -104.673383 14.038609 -6.271473 8.327941 -5.201656 -10.050977 9.385033 -28.364711 74.332951 -25.820367 1.777116 -13.453416 -2.743683 -0.493510 0.706356 -0.210560 -4.424944 -16.773172 0.018959 12.148884 63.212350 5.453675 -2.758341 -7.257541 0.175747 -0.391985 0.047556 -0.153475
-65.526280 63.124278 12.310506 164.387262 -50.366116 -2.344972 7.747869 26.606926 4.640678 1.160246 4.748313 0.306355 1.888323 7.466263 0.572867 5.831092 21.732337 2.369674 1.565598 14.310155 -2.275436 3.812301 -9.114417 -4.874775 5.958236 5.514833 5.234624 -3.593410 -13.031885 -12.464217 -82.410446 -58.409591 120.634286 3.135872 2.053271 -16.271180 -10.956019 3.087882 -0.490701 4.683876 -9.110609 12.530047 78.338567 -67.054712 -107.262710 13.438971 -6.194528 7.021755 -5.189034 -10.044288 9.406577 -28.373416 74.325559 -25.838351 1.786045 -13.446907 -2.740141 -0.505214 0.699285 -0.211673 -4.405904 -16.773248 0.042636 12.176024 63.263524 5.471830 -2.762456 -7.432837 0.184282 -0.406970 0.021524 -0.162758
-65.527948 63.125870 12.306874 164.401218 -50.346461 -2.347022 7.719082 26.599464 4.607756 1.163284 4.749887 0.304849 1.880823 7.466919 0.565150 5.826858 21.737971 2.352829 1.599683 14.280358 -2.267902 3.887820 -9.188196 -4.926200 5.995911 5.598816 5.214789 -3.975292 -13.034104 -12.278144 -84.448235 -58.585722 122.145130 3.427213 1.742334 -15.438675 -10.901883 3.155415 -0.470404 5.043262 -9.084749 12.273440 82.451374 -68.355144 -110.402869 12.892360 -6.106542 5.791019 -5.197757 -10.061296 9.406344 -28.379694 74.319867 -25.850971 1.772612 -13.450721 -2.743259 -0.494234 0.699725 -0.204634 -4.384407 -16.790405 0.040621 12.135924 63.288279 5.445862 -2.778262 -7.598502 0.181486 -0.388771 0.011862 -0.156914
-65.527799 63.129730 12.301738 164.388423 -50.347114 -2.333952 7.715139 26.618577 4.578554 1.169114 4.742589 0.310308 1.874470 7.470663 0.559703 5.827371 21.735983 2.343687 1.623580 14.257283 -2.265901 3.973489 -9.246013 -4.974897 6.019028 5.629677 5.213440 -4.388522 -12.971024 -12.105611 -86.640591 -58.738921 123.773774 3.774342 1.461969 -14.442860 -10.839054 3.231905 -0.450123 5.453571 -9.105884 12.012315 87.151190 -69.599991 -114.136295 12.386061 -6.050467 4.639586 -5.180350 -10.060781 9.419928 -28.433678 74.309203 -25.910692 1.748186 -13.451122 -2.740364 -0.475706 0.695689 -0.194840 -4.360859 -16.802044 0.045309 12.158365 63.335947 5.466281 -2.798456 -7.714983 0.186459 -0.382942 -0.053307 -0.159964
-65.528861 63.133022 12.296543 164.384941 -50.345545 -2.318661 7.709964 26.628528 4.548857 1.169723 4.737681 0.317465 1.866695 7.477443 0.547884 5.838478 21.726746 2.352650 1.637707 14.239430 -2.293429 4.064467 -9.280029 -4.999749 6.016409 5.752968 5.163327 -4.856976 -12.988185 -11.879597 -88.959391 -58.864413 125.523390 4.158509 1.201944 -13.284279 -10.766574 3.322179 -0.433553 5.875705 -9.163418 11.746625 92.423289 -70.721331 -118.428362 11.898885 -6.067437 3.548104 -5.171317 -10.062821 9.418644 -28.448647 74.306555 -25.937387 1.737747 -13.453510 -2.732131 -0.470039 0.689111 -0.196639 -4.344411 -16.816705 0.038882 12.210139 63.379764 5.513362 -2.832677 -7.824087 0.189118 -0.365381 -0.118564 -0.161352
